<svg version="1.1" id="Layer_1" xmlns="http://www.w3.org/2000/svg" xmlns:xlink="http://www.w3.org/1999/xlink" x="0px" y="0px"
	 width="100%" viewBox="0 0 240 240" enable-background="new 0 0 240 240" xml:space="preserve">
<path fill="#FF6155" opacity="1.000000" stroke="none" 
	d="
M135.000000,241.000000 
	C125.979103,241.000000 116.958214,241.000000 107.261780,240.664215 
	C90.963852,238.114120 76.118774,233.548904 62.339314,225.738861 
	C37.191719,211.485458 19.614237,190.663513 8.703611,163.656540 
	C7.676047,160.552567 6.685350,157.809464 5.685698,154.784607 
	C5.424088,154.006302 5.171433,153.509766 4.936500,152.669098 
	C4.627536,151.244324 4.300851,150.163681 3.982989,148.662674 
	C3.763036,147.440887 3.534261,146.639435 3.369293,145.676849 
	C3.383136,145.265884 3.239483,145.094559 3.001398,145.000641 
	C3.000658,144.999573 3.000141,144.996078 3.032515,144.663666 
	C2.985706,143.896622 2.906523,143.462006 2.852838,142.684723 
	C2.747346,141.907104 2.616359,141.472137 2.503905,140.688416 
	C2.014959,138.893097 1.507478,137.446548 0.999999,136.000000 
	C1.000000,126.645775 1.000000,117.291542 1.319804,107.296288 
	C1.923419,104.757393 2.207230,102.859520 2.630346,100.649811 
	C2.789094,99.886177 2.808538,99.434387 2.928110,98.662201 
	C3.019973,97.895409 3.011707,97.449028 3.001711,97.001320 
	C2.999981,97.000000 3.003138,97.003654 3.147135,96.904648 
	C3.483101,96.600502 3.492345,96.387489 3.500630,95.787354 
	C3.779602,94.577461 3.876804,93.746826 4.152182,92.623749 
	C4.526825,91.217941 4.723292,90.104568 5.092843,88.771248 
	C5.407315,88.018387 5.548702,87.485466 5.839739,86.617531 
	C6.907701,83.516182 7.826015,80.749840 8.912143,77.661041 
	C25.755808,37.891251 54.810795,13.115366 96.623306,3.438187 
	C99.768494,2.710258 102.875336,1.816611 106.000000,1.000000 
	C115.354225,1.000000 124.708458,1.000000 134.720688,1.348189 
	C151.017838,3.862874 165.853912,8.459080 179.642792,16.260324 
	C204.812057,30.500189 222.383224,51.330845 233.295013,78.344162 
	C234.324524,81.447563 235.316238,84.190186 236.319092,87.213959 
	C236.580658,87.991905 236.831085,88.488701 237.064163,89.329681 
	C237.373245,90.754501 237.699677,91.835152 238.017151,93.336502 
	C238.237244,94.559326 238.466309,95.361427 238.631546,96.324692 
	C238.617325,96.735542 238.760391,96.907578 238.998459,97.000984 
	C239.000000,97.000000 238.997513,97.003494 238.966187,97.336044 
	C239.014328,98.103462 239.093765,98.538322 239.145721,99.315224 
	C239.243362,100.093262 239.368530,100.529259 239.489044,101.327858 
	C239.989609,103.460312 240.494797,105.230156 241.000000,107.000000 
	C241.000000,116.354225 241.000000,125.708458 240.657349,135.715454 
	C239.927536,138.152588 239.517593,139.932327 239.156555,141.721939 
	C229.806808,188.066803 202.738983,219.138092 158.302155,234.961716 
	C150.772781,237.642883 142.779144,239.020279 135.000000,241.000000 
M157.152344,66.223976 
	C150.227707,62.601074 142.877609,60.924778 135.044388,60.968781 
	C118.045494,61.064274 101.045685,60.992649 84.046265,61.007572 
	C82.457481,61.008965 80.868813,61.140099 79.344315,61.208130 
	C79.344315,101.398613 79.344315,140.981049 79.344315,180.568542 
	C87.395096,180.568542 95.099953,180.568542 103.005180,180.568542 
	C103.005180,174.305252 103.005180,168.477112 103.005180,162.648972 
	C103.005180,156.881348 103.005180,151.113724 103.005180,145.001144 
	C114.485672,145.001144 125.292038,145.042267 136.097977,144.992249 
	C156.131134,144.899521 172.308716,132.632843 177.486130,113.675514 
	C182.479874,95.390633 174.737808,76.883644 157.152344,66.223976 
z"/>
<path fill="#FEFDFD" opacity="1.000000" stroke="none" 
	d="
M135.468658,241.000000 
	C142.779144,239.020279 150.772781,237.642883 158.302155,234.961716 
	C202.738983,219.138092 229.806808,188.066803 239.156555,141.721939 
	C239.517593,139.932327 239.927536,138.152588 240.657349,136.184113 
	C241.000000,170.927292 241.000000,205.854568 241.000000,241.000000 
	C205.979401,241.000000 170.958359,241.000000 135.468658,241.000000 
z"/>
<path fill="#FEFEFD" opacity="1.000000" stroke="none" 
	d="
M105.531342,1.000000 
	C102.875336,1.816611 99.768494,2.710258 96.623306,3.438187 
	C54.810795,13.115366 25.755808,37.891251 8.567143,77.725021 
	C7.266251,81.058479 6.478171,84.005516 5.690090,86.952545 
	C5.548702,87.485466 5.407315,88.018387 4.905325,89.057800 
	C4.354484,90.681587 4.164245,91.798882 3.974006,92.916183 
	C3.876804,93.746826 3.779602,94.577461 3.424010,95.916183 
	C3.075769,96.607376 3.021609,96.800507 3.003138,97.003654 
	C3.003138,97.003654 2.999981,97.000000 2.851087,97.167374 
	C2.744123,97.884026 2.786052,98.433311 2.827981,98.982597 
	C2.808538,99.434387 2.789094,99.886177 2.381742,100.650269 
	C1.662712,100.979218 1.331435,100.991699 1.000000,101.000000 
	C1.000000,67.737946 1.000000,34.475887 1.000000,1.000000 
	C35.687267,1.000000 70.374977,1.000000 105.531342,1.000000 
z"/>
<path fill="#FEFEFD" opacity="1.000000" stroke="none" 
	d="
M2.485370,141.037170 
	C2.616359,141.472137 2.747346,141.907104 2.735155,142.874023 
	C2.728031,143.936020 2.864087,144.466049 3.000142,144.996078 
	C3.000141,144.996078 3.000658,144.999573 3.026642,145.148682 
	C3.106123,145.492294 3.190410,145.672363 3.305488,145.837997 
	C3.534261,146.639435 3.763036,147.440887 3.974554,149.009064 
	C4.277792,150.854950 4.598286,151.934082 4.918779,153.013229 
	C5.171433,153.509766 5.424088,154.006302 5.542664,155.105438 
	C5.552633,158.865402 4.571073,162.474121 8.740478,164.017410 
	C19.614237,190.663513 37.191719,211.485458 62.339314,225.738861 
	C76.118774,233.548904 90.963852,238.114120 106.793121,240.664215 
	C71.741859,241.000000 36.483711,241.000000 1.000000,241.000000 
	C1.000000,207.979446 1.000000,174.958389 1.247575,141.476288 
	C1.824921,141.036255 2.154994,141.043549 2.485370,141.037170 
z"/>
<path fill="#FEFEFD" opacity="1.000000" stroke="none" 
	d="
M233.257233,77.983391 
	C222.383224,51.330845 204.812057,30.500189 179.642792,16.260324 
	C165.853912,8.459080 151.017838,3.862874 135.189346,1.348189 
	C170.258148,1.000000 205.516281,1.000000 241.000000,1.000000 
	C241.000000,34.020554 241.000000,67.041618 240.748947,100.524033 
	C240.163162,100.978668 239.828415,100.971962 239.493683,100.965256 
	C239.368530,100.529259 239.243362,100.093262 239.263092,99.125595 
	C239.271149,98.063774 239.134323,97.533638 238.997498,97.003494 
	C238.997513,97.003494 239.000000,97.000000 238.973267,96.852699 
	C238.893326,96.510620 238.809616,96.330002 238.695374,96.163536 
	C238.466309,95.361427 238.237244,94.559326 238.025146,92.990189 
	C237.721924,91.143936 237.401718,90.064720 237.081512,88.985497 
	C236.831085,88.488701 236.580658,87.991905 236.461563,86.892944 
	C236.443207,83.135307 237.432434,79.522522 233.257233,77.983391 
z"/>
<path fill="#FCF7F2" opacity="1.000000" stroke="none" 
	d="
M1.000000,101.428406 
	C1.331435,100.991699 1.662712,100.979218 2.242436,100.962112 
	C2.207230,102.859520 1.923419,104.757393 1.319804,106.827629 
	C1.000000,105.285606 1.000000,103.571205 1.000000,101.428406 
z"/>
<path fill="#FCF7F2" opacity="1.000000" stroke="none" 
	d="
M239.489044,101.327858 
	C239.828415,100.971962 240.163162,100.978668 240.748947,100.992691 
	C241.000000,102.714188 241.000000,104.428375 241.000000,106.571281 
	C240.494797,105.230156 239.989609,103.460312 239.489044,101.327858 
z"/>
<path fill="#FCF7F2" opacity="1.000000" stroke="none" 
	d="
M2.503905,140.688416 
	C2.154994,141.043549 1.824921,141.036255 1.247575,141.007629 
	C1.000000,139.611115 1.000000,138.222214 0.999999,136.416656 
	C1.507478,137.446548 2.014959,138.893097 2.503905,140.688416 
z"/>
<path fill="#FFFEFD" opacity="1.000000" stroke="none" 
	d="
M157.472534,66.411713 
	C174.737808,76.883644 182.479874,95.390633 177.486130,113.675514 
	C172.308716,132.632843 156.131134,144.899521 136.097977,144.992249 
	C125.292038,145.042267 114.485672,145.001144 103.005180,145.001144 
	C103.005180,151.113724 103.005180,156.881348 103.005180,162.648972 
	C103.005180,168.477112 103.005180,174.305252 103.005180,180.568542 
	C95.099953,180.568542 87.395096,180.568542 79.344315,180.568542 
	C79.344315,140.981049 79.344315,101.398613 79.344315,61.208130 
	C80.868813,61.140099 82.457481,61.008965 84.046265,61.007572 
	C101.045685,60.992649 118.045494,61.064274 135.044388,60.968781 
	C142.877609,60.924778 150.227707,62.601074 157.472534,66.411713 
M145.936462,87.317604 
	C143.910477,86.597145 141.894073,85.286278 139.856934,85.253220 
	C127.755753,85.056839 115.649780,85.156219 103.356918,85.156219 
	C103.356918,97.268829 103.356918,108.970444 103.356918,120.999863 
	C114.515793,120.999863 125.320702,121.021744 136.125473,120.993011 
	C144.940094,120.969566 151.485474,116.432945 154.082809,108.627319 
	C156.709244,100.734245 153.970581,93.121765 145.936462,87.317604 
z"/>
<path fill="#FCF7F2" opacity="1.000000" stroke="none" 
	d="
M8.703611,163.656540 
	C4.571073,162.474121 5.552633,158.865402 5.551619,155.387207 
	C6.685350,157.809464 7.676047,160.552567 8.703611,163.656540 
z"/>
<path fill="#FCF7F2" opacity="1.000000" stroke="none" 
	d="
M233.295013,78.344162 
	C237.432434,79.522522 236.443207,83.135307 236.450409,86.611801 
	C235.316238,84.190186 234.324524,81.447563 233.295013,78.344162 
z"/>
<path fill="#FCF7F2" opacity="1.000000" stroke="none" 
	d="
M5.839739,86.617531 
	C6.478171,84.005516 7.266251,81.058479 8.399330,78.047478 
	C7.826015,80.749840 6.907701,83.516182 5.839739,86.617531 
z"/>
<path fill="#FCF7F2" opacity="1.000000" stroke="none" 
	d="
M237.064163,89.329681 
	C237.401718,90.064720 237.721924,91.143936 238.034119,92.569473 
	C237.699677,91.835152 237.373245,90.754501 237.064163,89.329681 
z"/>
<path fill="#FCF7F2" opacity="1.000000" stroke="none" 
	d="
M4.152182,92.623749 
	C4.164245,91.798882 4.354484,90.681587 4.732241,89.277740 
	C4.723292,90.104568 4.526825,91.217941 4.152182,92.623749 
z"/>
<path fill="#FCF7F2" opacity="1.000000" stroke="none" 
	d="
M4.936501,152.669098 
	C4.598286,151.934082 4.277792,150.854950 3.965733,149.429413 
	C4.300851,150.163681 4.627536,151.244324 4.936501,152.669098 
z"/>
<path fill="#FCF7F2" opacity="1.000000" stroke="none" 
	d="
M2.928110,98.662201 
	C2.786052,98.433311 2.744123,97.884026 2.852817,97.168686 
	C3.011707,97.449028 3.019973,97.895409 2.928110,98.662201 
z"/>
<path fill="#FCF7F2" opacity="1.000000" stroke="none" 
	d="
M238.966187,97.336044 
	C239.134323,97.533638 239.271149,98.063774 239.290588,98.783554 
	C239.093765,98.538322 239.014328,98.103462 238.966187,97.336044 
z"/>
<path fill="#FCF7F2" opacity="1.000000" stroke="none" 
	d="
M3.032516,144.663666 
	C2.864087,144.466049 2.728031,143.936020 2.709658,143.216675 
	C2.906523,143.462006 2.985706,143.896622 3.032516,144.663666 
z"/>
<path fill="#FCF7F2" opacity="1.000000" stroke="none" 
	d="
M3.147135,96.904648 
	C3.021609,96.800507 3.075769,96.607376 3.242241,96.295425 
	C3.492345,96.387489 3.483101,96.600502 3.147135,96.904648 
z"/>
<path fill="#FCF7F2" opacity="1.000000" stroke="none" 
	d="
M238.631546,96.324692 
	C238.809616,96.330002 238.893326,96.510620 238.971725,96.853683 
	C238.760391,96.907578 238.617325,96.735542 238.631546,96.324692 
z"/>
<path fill="#FCF7F2" opacity="1.000000" stroke="none" 
	d="
M3.369294,145.676849 
	C3.190410,145.672363 3.106123,145.492294 3.027382,145.149750 
	C3.239483,145.094559 3.383136,145.265884 3.369294,145.676849 
z"/>
<path fill="#FE6256" opacity="1.000000" stroke="none" 
	d="
M146.252090,87.527878 
	C153.970581,93.121765 156.709244,100.734245 154.082809,108.627319 
	C151.485474,116.432945 144.940094,120.969566 136.125473,120.993011 
	C125.320702,121.021744 114.515793,120.999863 103.356918,120.999863 
	C103.356918,108.970444 103.356918,97.268829 103.356918,85.156219 
	C115.649780,85.156219 127.755753,85.056839 139.856934,85.253220 
	C141.894073,85.286278 143.910477,86.597145 146.252090,87.527878 
z"/>
</svg>