<svg width="542" height="79" viewBox="0 0 542 79" fill="none" xmlns="http://www.w3.org/2000/svg">
<g clip-path="url(#clip0_28_14)">
<mask id="mask0_28_14" style="mask-type:luminance" maskUnits="userSpaceOnUse" x="0" y="0" width="542" height="79">
<path d="M0 0H542V79H0V0Z" fill="white"/>
</mask>
<g mask="url(#mask0_28_14)">
<path d="M141.689 16.1939H136.564V46.6116C136.564 51.6676 135.203 55.4596 132.48 57.9881C129.811 60.5161 126.208 61.7801 121.67 61.7801C117.612 61.7801 114.436 60.8926 112.141 59.1175C109.899 57.2888 108.217 55.1102 107.096 52.5822L113.342 47.8215C114.356 50.1348 115.477 51.6676 116.705 52.421C117.987 53.1198 119.374 53.4697 120.869 53.4697C123.271 53.4697 125.006 52.851 126.074 51.614C127.142 50.323 127.676 48.682 127.676 46.6922V16.1939H118.067V8.52882H141.689V16.1939ZM150.342 17.2427V7.72238H159.07V17.2421L150.342 17.2427ZM164.675 60.9732H145.457V54.3573H150.822V31.4431H145.137V24.7466H159.31V54.3573H164.675V60.9732ZM209.918 31.4431H204.713V59.6015C204.713 65.3569 203.112 70.0099 199.909 73.5596C196.759 77.1098 192.034 78.885 185.735 78.885C181.998 78.885 178.501 78.078 175.245 76.4646C171.988 74.8506 169.693 72.0804 168.358 68.1542L175.004 64.5234C177.247 69.4718 180.877 71.9462 185.895 71.9462C188.884 71.9462 191.34 70.8704 193.262 68.7189C195.184 66.5673 196.145 63.5012 196.145 59.5209V54.115C195.131 56.0513 193.662 57.7188 191.741 59.1175C189.872 60.462 187.283 61.1343 183.973 61.1343C179.756 61.1343 176.099 59.6551 173.003 56.6971C169.96 53.685 168.438 49.3278 168.438 43.626C168.438 38.4624 169.8 33.9175 172.522 29.9908C175.298 26.0101 179.302 24.0202 184.534 24.0202C189.979 24.0202 193.849 26.1448 196.145 30.3943V24.7461H209.918V31.4431ZM196.145 43.7066V40.8022C196.145 37.7906 195.29 35.3962 193.582 33.6217C191.874 31.8465 189.738 30.959 187.176 30.959C184.187 30.959 181.891 32.0618 180.29 34.2674C178.688 36.4185 177.888 39.35 177.888 43.0614C177.888 46.8804 178.688 49.7048 180.29 51.5329C181.891 53.308 183.92 54.1956 186.375 54.1956C189.418 54.1956 191.794 53.1198 193.502 50.9683C195.264 48.8167 196.145 46.3958 196.145 43.7066ZM244.717 50.1618C244.717 53.9268 243.169 56.8047 240.072 58.7946C237.029 60.7849 233.133 61.7801 228.381 61.7801C225.819 61.7801 223.23 61.4843 220.614 60.8926C218.051 60.3009 215.729 59.4133 213.647 58.2299L214.928 48.8708L221.655 49.516L221.575 54.1956C222.6 54.6292 223.677 54.9276 224.778 55.0831C225.952 55.2449 226.993 55.3255 227.9 55.3255C230.09 55.3255 231.984 54.949 233.586 54.1956C235.241 53.3892 236.068 52.2058 236.068 50.6459C236.068 49.1396 235.321 48.0638 233.826 47.4186C232.385 46.7728 230.57 46.2892 228.381 45.9658C226.192 45.5894 224.004 45.1053 221.815 44.5136C219.626 43.8683 217.785 42.8461 216.29 41.448C214.848 39.9952 214.127 37.8437 214.127 34.9933C214.127 30.7978 215.702 27.9199 218.852 26.36C222.055 24.8002 225.418 24.0202 228.942 24.0202C233.586 24.0202 237.964 25.1231 242.074 27.3282L242.955 36.2843L236.229 37.0908L235.508 31.6848C233.426 30.8784 231.317 30.4749 229.182 30.4749C227.527 30.4749 226.112 30.8249 224.938 31.5237C223.817 32.1689 223.256 33.2182 223.256 34.6704C223.256 36.1762 223.977 37.2254 225.418 37.8171C226.86 38.4088 228.648 38.8929 230.784 39.2694C232.951 39.5994 235.091 40.0849 237.19 40.7221C239.325 41.3133 241.113 42.3355 242.555 43.7877C243.996 45.1859 244.717 47.3109 244.717 50.1618ZM252.978 27.4088C255.648 26.1177 258.023 25.2307 260.105 24.7461C262.188 24.262 264.59 24.0197 267.312 24.0197C271.316 24.0197 274.599 25.0419 277.161 27.0864C279.777 29.1303 281.085 32.1959 281.085 36.2838V52.5822C281.085 54.7337 281.966 55.8095 283.728 55.8095C284.208 55.8095 284.822 55.7019 285.57 55.4866L285.65 60.2468C283.888 61.269 281.966 61.7801 279.884 61.7801C275.347 61.7801 272.891 59.3863 272.517 54.5991V54.4379C271.449 56.3206 269.928 58.0146 267.953 59.5209C266.031 61.0267 263.629 61.7801 260.746 61.7801C258.237 61.7801 255.755 61.0267 253.299 59.5209C250.897 57.9611 249.695 55.2714 249.695 51.4523C249.695 46.988 251.457 44.0566 254.98 42.6579C258.504 41.2057 262.321 40.4798 266.431 40.4798C267.445 40.4798 268.487 40.5063 269.554 40.5604C270.544 40.6077 271.533 40.6884 272.517 40.8022V38.7853C272.517 36.6337 272.143 34.6974 271.396 32.9759C270.648 31.2548 268.78 30.3938 265.791 30.3938C264.67 30.3938 263.602 30.4749 262.587 30.6361C261.627 30.7978 260.693 31.1202 259.785 31.6042L258.344 37.1714L251.457 36.445L252.978 27.4088ZM272.517 46.6116V45.3206C271.609 45.2129 270.675 45.1053 269.714 44.9977C268.73 44.8889 267.741 44.8351 266.751 44.8365C264.616 44.8365 262.694 45.2129 260.986 45.9658C259.331 46.7187 258.504 48.225 258.504 50.4842C258.504 53.7656 260.239 55.406 263.709 55.406C265.737 55.406 267.659 54.6797 269.474 53.2274C271.289 51.7217 272.303 49.516 272.517 46.6116ZM345.907 31.3625H342.303L332.213 60.9732H325.807L315.878 37.0908H315.478L306.108 60.9732H300.023L289.693 31.3625H286.17V24.7461H304.427V31.3625H298.821L304.347 48.7902H304.827L314.036 24.7461H319.321L329.651 48.5479H330.132L334.456 31.3625H329.09V24.7461H345.907V31.3625ZM387.524 45.5629C387.524 50.78 385.709 54.7873 382.078 57.5846C378.502 60.3815 373.751 61.7801 367.825 61.7801C364.302 61.7801 360.885 61.3496 357.575 60.4891C354.319 59.6286 351.73 58.3911 349.808 56.7777L351.249 44.7559L358.376 45.4823L358.216 51.9364C359.977 52.851 361.579 53.4427 363.021 53.7115C364.515 53.9268 365.903 54.0344 367.185 54.0344C370.281 54.0344 372.843 53.5503 374.872 52.5817C376.954 51.56 377.995 49.5431 377.995 46.531C377.995 43.2496 376.821 41.0715 374.472 39.9957C372.122 38.8664 369.427 38.0054 366.384 37.4137C363.866 36.9136 361.38 36.2671 358.937 35.4774C356.428 34.6704 354.345 33.3258 352.69 31.4431C351.036 29.5608 350.208 26.79 350.208 23.1327C350.208 17.6462 352.05 13.7195 355.734 11.3527C359.47 8.9323 363.635 7.72238 368.225 7.72238C371.428 7.72238 374.525 8.20646 377.515 9.17461C380.557 10.1428 382.933 11.4068 384.641 12.9666L385.122 24.0202L377.995 24.6655L377.274 17.8885C375.779 17.0274 374.285 16.4357 372.79 16.1134C371.295 15.7905 369.853 15.6293 368.466 15.6293C365.957 15.6293 363.875 16.1399 362.22 17.1621C360.565 18.1843 359.738 19.8248 359.738 22.0839C359.738 24.719 360.752 26.5217 362.78 27.4894C364.862 28.4039 367.185 29.1568 369.747 29.7485C371.936 30.2326 374.418 30.8779 377.194 31.6854C379.97 32.4918 382.372 33.944 384.401 36.042C386.483 38.086 387.524 41.2592 387.524 45.5629ZM421.705 50.323C420.69 57.9611 416.473 61.7801 409.053 61.7801C405.209 61.7801 402.139 60.7579 399.844 58.714C397.602 56.67 396.48 53.8192 396.48 50.1618V31.1202H391.196V24.7461H396.48V13.5313H405.049V24.7461H418.421V31.1202H405.049V48.7902C405.049 52.6092 406.704 54.5185 410.014 54.5185C410.921 54.5185 411.935 54.1956 413.057 53.5503C414.177 52.851 414.952 51.1029 415.379 48.3061L421.705 50.323ZM427.285 27.4088C429.955 26.1177 432.33 25.2307 434.412 24.7461C436.494 24.262 438.897 24.0197 441.62 24.0197C445.623 24.0197 448.907 25.0419 451.469 27.0864C454.084 29.1303 455.393 32.1959 455.393 36.2838V52.5822C455.393 54.7337 456.274 55.8095 458.035 55.8095C458.516 55.8095 459.129 55.7019 459.877 55.4866L459.957 60.2468C458.195 61.269 456.274 61.7801 454.191 61.7801C449.654 61.7801 447.198 59.3863 446.824 54.5991V54.4379C445.757 56.3206 444.235 58.0146 442.26 59.5209C440.338 61.0267 437.936 61.7801 435.053 61.7801C432.544 61.7801 430.062 61.0267 427.606 59.5209C425.204 57.9611 424.002 55.2714 424.002 51.4523C424.002 46.988 425.764 44.0566 429.288 42.6579C432.811 41.2057 436.628 40.4798 440.739 40.4798C441.753 40.4798 442.794 40.5063 443.862 40.5604C444.852 40.6077 445.84 40.6884 446.824 40.8022V38.7853C446.824 36.6337 446.451 34.6974 445.703 32.9759C444.956 31.2548 443.088 30.3938 440.098 30.3938C438.977 30.3938 437.909 30.4749 436.895 30.6361C435.934 30.7978 435 31.1202 434.092 31.6042L432.651 37.1714L425.764 36.445L427.285 27.4088ZM446.824 46.6116V45.3206C445.917 45.2129 444.983 45.1053 444.022 44.9977C443.038 44.8889 442.048 44.8351 441.059 44.8365C438.923 44.8365 437.002 45.2129 435.293 45.9658C433.638 46.7187 432.811 48.225 432.811 50.4842C432.811 53.7656 434.546 55.406 438.016 55.406C440.045 55.406 441.966 54.6797 443.781 53.2274C445.597 51.7217 446.611 49.516 446.824 46.6116ZM496.878 47.9832C496.504 51.2106 495.09 54.3303 492.634 57.3423C490.178 60.3009 486.228 61.7801 480.782 61.7801C475.658 61.7801 471.467 60.2203 468.21 57.1006C465.007 53.9809 463.406 49.4354 463.406 43.4648C463.406 37.6019 465.061 32.8953 468.371 29.3456C471.734 25.7954 476.111 24.0202 481.503 24.0202C483.639 24.0202 485.774 24.2891 487.91 24.8272C490.045 25.3648 492.153 26.2524 494.235 27.4894L495.676 37.6554L488.79 38.3818L487.589 32.4117C485.645 31.4507 483.508 30.9536 481.343 30.959C475.364 30.959 472.375 34.9933 472.375 43.0614C472.375 50.9147 475.444 54.8414 481.583 54.8414C486.067 54.8414 488.764 52.0981 489.671 46.6116L496.878 47.9832ZM540.906 60.9732H522.966V54.3573H527.129L519.603 45.3206H513.838V54.3573H517.842V60.9732H499.905V54.3573H505.27V12.079H499.584V5.4632H513.838V39.1077H520.004L526.329 31.4425H521.605V24.7461H539.143V31.4425H534.659L526.169 41.4474L537.059 54.3568H540.906V60.9732Z" fill="#EF5B3C"/>
<g filter="url(#filter0_i_28_14)">
<path d="M35.1227 70.7193C33.2357 69.6213 31.3823 68.4602 29.4538 67.4422C26.8227 66.0541 26.6632 62.4185 29.2738 60.9907C30.8566 60.1254 32.0248 58.8455 32.4826 57.0258C33.1267 54.4697 32.4984 52.2551 30.5251 50.5473C28.5923 48.8766 26.3228 48.4461 23.9401 49.4328C21.5353 50.4269 20.2382 52.3187 20.024 54.9416C20.0009 55.2083 20.0145 55.4782 20.0072 55.7449C19.9324 58.5889 17.1361 60.2198 14.6724 58.8094C10.7142 56.5428 6.785 54.2301 2.84524 51.9317C2.63561 51.8104 2.43606 51.6723 2.24851 51.5186C-0.0278903 49.6258 -0.626195 46.6068 0.838784 44.0067C3.04841 40.0798 5.2884 36.1704 7.55853 32.2787C9.0735 29.6833 12.3565 29.7486 13.8599 32.3614C16.2595 36.5341 21.8237 36.9015 24.5789 33.0358C26.0292 31.0014 26.2049 28.7666 25.1141 26.5292C24.0232 24.2917 22.161 23.1269 19.6804 22.962C19.011 22.918 18.298 22.9185 17.6913 22.6757C15.6959 21.8836 14.8655 19.6185 15.9369 17.6934C18.2086 13.6076 20.5097 9.53251 22.9219 5.53055C24.481 2.94264 27.5841 2.15741 30.3125 3.43785C30.6404 3.59267 30.9614 3.76763 31.2755 3.95055C34.9032 6.05863 38.5536 8.13066 42.1444 10.3029C43.2842 10.9927 44.4603 10.3363 44.4203 8.96679C44.3119 5.21455 46.6846 1.8992 50.1213 0.730638C53.6933 -0.485644 57.5651 0.698826 59.7968 3.69075C62.0432 6.69965 62.1779 10.8061 59.952 13.8574C59.2148 14.8663 58.1903 15.7629 57.1121 16.3933C56.0212 17.0296 55.9818 18.3773 57.1421 19.0274C60.8866 21.127 64.5817 23.3167 68.2862 25.4852C70.7615 26.9343 71.9334 29.273 71.4088 31.8307C71.2517 32.5684 70.983 33.2774 70.6121 33.9329C68.4856 37.7101 66.2745 41.4406 64.1733 45.2326C62.6078 48.0585 59.0354 47.9313 57.6446 45.2501C56.3948 42.8366 53.7859 41.6532 51.1669 42.0598C48.6385 42.4522 46.5373 44.4288 45.9663 46.9547C45.3901 49.5007 46.4268 52.1538 48.6206 53.6712C49.6856 54.4082 50.8912 54.843 52.1757 54.7438C55.2982 54.5037 57.0916 57.7591 55.4177 60.5289C53.2134 64.1756 51.1632 67.9135 49.0394 71.609C47.1651 74.8714 43.8257 75.7759 40.5921 73.9037C38.7662 72.8465 36.9434 71.7813 35.12 70.7204L35.1227 70.7193Z" fill="url(#paint0_linear_28_14)"/>
</g>
</g>
</g>
<defs>
<filter id="filter0_i_28_14" x="0.0405045" y="0.258362" width="71.4914" height="78.7188" filterUnits="userSpaceOnUse" color-interpolation-filters="sRGB">
<feFlood flood-opacity="0" result="BackgroundImageFix"/>
<feBlend mode="normal" in="SourceGraphic" in2="BackgroundImageFix" result="shape"/>
<feColorMatrix in="SourceAlpha" type="matrix" values="0 0 0 0 0 0 0 0 0 0 0 0 0 0 0 0 0 0 127 0" result="hardAlpha"/>
<feOffset dy="4.11"/>
<feGaussianBlur stdDeviation="2.055"/>
<feComposite in2="hardAlpha" operator="arithmetic" k2="-1" k3="1"/>
<feColorMatrix type="matrix" values="0 0 0 0 0.178792 0 0 0 0 0.178792 0 0 0 0 0.178792 0 0 0 0.3 0"/>
<feBlend mode="normal" in2="shape" result="effect1_innerShadow_28_14"/>
</filter>
<linearGradient id="paint0_linear_28_14" x1="-2.11275" y1="11.6735" x2="97.3258" y2="81.512" gradientUnits="userSpaceOnUse">
<stop offset="0.184" stop-color="#FA242D"/>
<stop offset="0.958" stop-color="#EF5B3C"/>
</linearGradient>
<clipPath id="clip0_28_14">
<rect width="542" height="79" fill="white"/>
</clipPath>
</defs>
</svg>
